<svg width="100px" height="100px" xmlns="http://www.w3.org/2000/svg" style="animation-delay: 0s; animation-direction: normal; animation-duration: 0s; animation-fill-mode: none; animation-iteration-count: 1; animation-name: none; animation-play-state: running; animation-timing-function: ease; background-attachment: scroll; background-blend-mode: normal; background-clip: border-box; background-color: rgba(0, 0, 0, 0); background-image: none; background-origin: padding-box; background-position: 0% 0%; background-repeat: repeat; background-size: auto; border-bottom-color: rgb(118, 163, 27); border-bottom-left-radius: 0px; border-bottom-right-radius: 0px; border-bottom-style: none; border-bottom-width: 0px; border-collapse: separate; border-image-outset: 0px; border-image-repeat: stretch; border-image-slice: 100%; border-image-source: none; border-image-width: 1; border-left-color: rgb(118, 163, 27); border-left-style: none; border-left-width: 0px; border-right-color: rgb(118, 163, 27); border-right-style: none; border-right-width: 0px; border-top-color: rgb(118, 163, 27); border-top-left-radius: 0px; border-top-right-radius: 0px; border-top-style: none; border-top-width: 0px; bottom: auto; box-shadow: none; box-sizing: content-box; break-after: auto; break-before: auto; break-inside: auto; caption-side: top; clear: none; clip: auto; color: rgb(118, 163, 27); content: ; cursor: pointer; direction: ltr; display: inline; empty-cells: show; float: none; font-family: Arial, Helvetica, sans-serif; font-kerning: auto; font-size: 11px; font-stretch: 100%; font-style: normal; font-variant: normal; font-variant-ligatures: normal; font-variant-caps: normal; font-variant-numeric: normal; font-variant-east-asian: normal; font-weight: 400; height: 100px; image-rendering: auto; isolation: auto; justify-items: normal; justify-self: auto; left: auto; letter-spacing: normal; line-height: normal; list-style-image: none; list-style-position: outside; list-style-type: disc; margin-bottom: 0px; margin-left: 0px; margin-right: 0px; margin-top: 0px; max-height: none; max-width: none; min-height: 0px; min-width: 0px; mix-blend-mode: normal; object-fit: fill; object-position: 50% 50%; offset-distance: 0px; offset-path: none; offset-rotate: auto 0deg; opacity: 1; orphans: 2; outline-color: rgb(118, 163, 27); outline-offset: 0px; outline-style: none; outline-width: 0px; overflow-anchor: auto; overflow-wrap: normal; overflow-x: hidden; overflow-y: hidden; padding-bottom: 0px; padding-left: 0px; padding-right: 0px; padding-top: 0px; pointer-events: auto; position: static; resize: none; right: auto; scroll-behavior: auto; speak: normal; table-layout: auto; tab-size: 8; text-align: start; text-align-last: auto; text-decoration: none solid rgb(118, 163, 27); text-decoration-line: none; text-decoration-style: solid; text-decoration-color: rgb(118, 163, 27); text-decoration-skip: objects; text-underline-position: auto; text-indent: 0px; text-rendering: geometricPrecision; text-shadow: none; text-size-adjust: auto; text-overflow: clip; text-transform: none; top: auto; touch-action: auto; transition-delay: 0s; transition-duration: 0s; transition-property: all; transition-timing-function: ease; unicode-bidi: normal; vertical-align: baseline; visibility: visible; white-space: normal; widows: 2; width: 100px; will-change: auto; word-break: normal; word-spacing: 0px; word-wrap: normal; z-index: auto; zoom: 1; -webkit-appearance: none; backface-visibility: visible; -webkit-background-clip: border-box; -webkit-background-origin: padding-box; -webkit-border-horizontal-spacing: 0px; -webkit-border-image: none; -webkit-border-vertical-spacing: 0px; -webkit-box-align: stretch; -webkit-box-decoration-break: slice; -webkit-box-direction: normal; -webkit-box-flex: 0; -webkit-box-flex-group: 1; -webkit-box-lines: single; -webkit-box-ordinal-group: 1; -webkit-box-orient: horizontal; -webkit-box-pack: start; -webkit-box-reflect: none; column-count: auto; column-gap: normal; column-rule-color: rgb(118, 163, 27); column-rule-style: none; column-rule-width: 0px; column-span: none; column-width: auto; align-content: normal; align-items: normal; align-self: auto; flex-basis: auto; flex-grow: 0; flex-shrink: 1; flex-direction: row; flex-wrap: nowrap; justify-content: normal; -webkit-font-smoothing: auto; grid-auto-columns: auto; grid-auto-flow: row; grid-auto-rows: auto; grid-column-end: auto; grid-column-start: auto; grid-template-areas: none; grid-template-columns: none; grid-template-rows: none; grid-row-end: auto; grid-row-start: auto; grid-column-gap: 0px; grid-row-gap: 0px; -webkit-highlight: none; hyphens: manual; -webkit-hyphenate-character: auto; -webkit-line-break: auto; -webkit-line-clamp: none; -webkit-locale: auto; -webkit-margin-before-collapse: collapse; -webkit-margin-after-collapse: collapse; -webkit-mask-box-image: none; -webkit-mask-box-image-outset: 0px; -webkit-mask-box-image-repeat: stretch; -webkit-mask-box-image-slice: 0 fill; -webkit-mask-box-image-source: none; -webkit-mask-box-image-width: auto; -webkit-mask-clip: border-box; -webkit-mask-composite: source-over; -webkit-mask-image: none; -webkit-mask-origin: border-box; -webkit-mask-position: 0% 0%; -webkit-mask-repeat: repeat; -webkit-mask-size: auto; order: 0; perspective: none; perspective-origin: 50px 50px; -webkit-print-color-adjust: economy; -webkit-rtl-ordering: logical; shape-outside: none; shape-image-threshold: 0; shape-margin: 0px; -webkit-tap-highlight-color: rgba(0, 0, 0, 0.18); -webkit-text-combine: none; -webkit-text-decorations-in-effect: none; -webkit-text-emphasis-color: rgb(118, 163, 27); -webkit-text-emphasis-position: over right; -webkit-text-emphasis-style: none; -webkit-text-fill-color: rgb(118, 163, 27); -webkit-text-orientation: vertical-right; -webkit-text-security: none; -webkit-text-stroke-color: rgb(118, 163, 27); -webkit-text-stroke-width: 0px; transform: none; transform-origin: 50px 50px; transform-style: flat; -webkit-user-drag: auto; -webkit-user-modify: read-only; user-select: auto; -webkit-writing-mode: horizontal-tb; -webkit-app-region: no-drag; buffered-rendering: auto; clip-path: none; clip-rule: evenodd; mask: none; filter: none; flood-color: rgb(0, 0, 0); flood-opacity: 1; lighting-color: rgb(255, 255, 255); stop-color: rgb(0, 0, 0); stop-opacity: 1; color-interpolation: sRGB; color-interpolation-filters: linearRGB; color-rendering: auto; fill: rgb(0, 0, 0); fill-opacity: 1; fill-rule: evenodd; marker-end: none; marker-mid: none; marker-start: none; mask-type: luminance; shape-rendering: geometricPrecision; stroke: none; stroke-dasharray: none; stroke-dashoffset: 0px; stroke-linecap: butt; stroke-linejoin: miter; stroke-miterlimit: 4; stroke-opacity: 1; stroke-width: 1px; alignment-baseline: auto; baseline-shift: 0px; dominant-baseline: auto; text-anchor: start; writing-mode: horizontal-tb; vector-effect: none; paint-order: fill stroke markers; d: none; cx: 0px; cy: 0px; x: 0px; y: 0px; r: 0px; rx: auto; ry: auto; caret-color: rgb(118, 163, 27); line-break: auto;" version="1.1" xmlns:xlink="http://www.w3.org/1999/xlink">
  <style type="text/css">
  .str0 { stroke: white; stroke-width: 4.57367; }
  .fil1 { fill: none; }
  .fil0 { fill: rgb(33, 33, 33); }
  </style>
  <svg xmlns="http://www.w3.org/2000/svg" xml:space="preserve" version="1.1" style="shape-rendering:geometricPrecision; text-rendering:geometricPrecision; image-rendering:optimizeQuality;&#10;fill-rule:evenodd; clip-rule:evenodd" viewBox="0 0 193 193" xmlns:xlink="http://www.w3.org/1999/xlink">
    <defs>
        <style type="text/css">
            .str0 {
                stroke: white;
                stroke-width: 4.57367
            }
            .fil1 {
                fill: none
            }
            .fil0 {
                fill: #212121
            }
        </style>
    </defs>
      <g id="Warstwa_x0020_1">
          <metadata id="CorelCorpID_0Corel-Layer"/>
          <path class="fil0" d="M49 183l0 10 -4 0 0 -10 4 0zm17 0l0 10 -5 0 0 -10 5 0zm83 0l0 10 -5 0 0 -10 5&#10;0zm-17 0l0 10 -4 0 0 -10 4 0zm-50 0l0 10 -4 0 0 -10 4 0zm33 0l0 10 -4 0 0 -10 4 0zm-16 0l0 10 -5 0 0 -10 5&#10;0zm-45 -14l0 14 -15 0 0 -14 15 0zm16 0l0 14 -14 0 0 -14 14 0zm83 0l0 14 -13 0 0 -14 13 0zm-16 0l0 14 -14 0 0 -14&#10;14 0zm-50 0l0 14 -14 0 0 -14 14 0zm34 0l0 14 -15 0 0 -14 15 0zm-17 0l0 14 -14 0 0 -14 14 0zm-93 -120l-11 0 0 -4&#10;11 0 0 4zm0 17l-11 0 0 -5 11 0 0 5zm0 83l-11 0 0 -5 11 0 0 5zm0 -17l-11 0 0 -4 11 0 0 4zm0 -50l-11 0 0 -4 11 0 0&#10;4zm0 33l-11 0 0 -4 11 0 0 4zm0 -16l-11 0 0 -5 11 0 0 5zm14 -45l-14 0 0 -15 14 0 0 15zm0 16l-14 0 0 -14 14 0 0&#10;14zm0 83l-14 0 0 -13 14 0 0 13zm0 -16l-14 0 0 -14 14 0 0 14zm0 -50l-14 0 0 -14 14 0 0 14zm0 34l-14 0 0 -15 14 0&#10;0 15zm0 -17l-14 0 0 -14 14 0 0 14zm119 -93l0 -11 5 0 0 11 -5 0zm-16 0l0 -11 4 0 0 11 -4 0zm-83 0l0 -11 4 0 0 11&#10;-4 0zm16 0l0 -11 5 0 0 11 -5 0zm50 0l0 -11 4 0 0 11 -4 0zm-33 0l0 -11 4 0 0 11 -4 0zm16 0l0 -11 5 0 0 11 -5&#10;0zm46 14l0 -14 13 0 0 14 -13 0zm-17 0l0 -14 14 0 0 14 -14 0zm-83 0l0 -14 14 0 0 14 -14 0zm16 0l0 -14 14 0 0 14&#10;-14 0zm50 0l0 -14 15 0 0 14 -15 0zm-33 0l0 -14 14 0 0 14 -14 0zm17 0l0 -14 14 0 0 14 -14 0zm93 119l10 0 0 5 -10&#10;0 0 -5zm-14 -4l14 0 0 13 -14 0 0 -13zm0 -17l14 0 0 14 -14 0 0 -14zm14 5l10 0 0 4 -10 0 0 -4zm0 -83l10 0 0 4 -10&#10;0 0 -4zm0 16l10 0 0 5 -10 0 0 -5zm0 50l10 0 0 4 -10 0 0 -4zm0 -33l10 0 0 4 -10 0 0 -4zm0 16l10 0 0 5 -10 0 0&#10;-5zm-14 -55l14 0 0 15 -14 0 0 -15zm0 17l14 0 0 14 -14 0 0 -14zm0 50l14 0 0 14 -14 0 0 -14zm0 -33l14 0 0 14 -14 0&#10;0 -14zm0 17l14 0 0 14 -14 0 0 -14zm-140 74l135 0 0 -135 -135 0 0 135z"/>
          <path class="fil1 str0" d="M68 97c0,-8 -5,-14 -13,-14 -7,0 -13,6 -13,14 0,7 6,13 13,13 8,0 13,-6&#10;13,-13zm-21 -66l0 55m0 22l0 54m16 -76l17 -17 0 -38m0 131l0 -38 -17 -17m42 19l0 36m33 -49l0 49m-20 -49l44 0m-57&#10;-51l0 38m13 -53c0,-8 -6,-14 -13,-14 -7,0 -13,6 -13,14 0,7 6,13 13,13 7,0 13,-6 13,-13zm-5 10l17 21m22 10c0,-7&#10;-6,-13 -14,-13 -7,0 -13,6 -13,13 0,8 6,14 13,14 8,0 14,-6 14,-14zm-14 -13l0 -44m-20 82c0,-7 -6,-13 -13,-13 -7,0&#10;-13,6 -13,13 0,8 6,14 13,14 7,0 13,-6 13,-14z"/>
      </g>
  </svg>
</svg>
